<?xml version="1.0" encoding="UTF-8"?>
<svg width="30px" height="31px" viewBox="0 0 30 31" version="1.1" xmlns="http://www.w3.org/2000/svg" xmlns:xlink="http://www.w3.org/1999/xlink">
    <title>511936_forward_reload_rotate_spin_icon</title>
    <g id="Page-1" stroke="none" stroke-width="1" fill="none" fill-rule="evenodd">
        <g id="511936_forward_reload_rotate_spin_icon" fill="#ffffff">
            <text id="t" font-family="Arial-BoldMT, Arial" font-size="12">
                <tspan x="7.21386719" y="22">15</tspan>
            </text>
            <path d="M30,10.9867647 L30,0.718470588 L26.204384,4.54970588 C23.4276767,1.74147059 19.5977358,0 15.3558955,0 C6.87582801,0 0,6.94035294 0,15.5 C0,24.0596471 6.87582801,31 15.3558955,31 C21.0628688,31 26.0327592,27.8507647 28.679393,23.1843529 L25.5413706,21.3735882 C23.5143924,24.9385882 19.7133566,27.3511176 15.3558955,27.3511176 C8.8811273,27.3511176 3.61315187,22.0337059 3.61315187,15.4981765 C3.61315187,8.96264706 8.8811273,3.64523529 15.3558955,3.64523529 C18.5932795,3.64523529 21.5235457,4.98005882 23.648079,7.12817647 L19.8271709,10.9867647 L30,10.9867647 Z" id="Path" fill-rule="nonzero" transform="translate(15.000000, 15.500000) scale(-1, 1) translate(-15.000000, -15.500000) "></path>
        </g>
    </g>
</svg>