<svg width="60" height="31" xmlns="http://www.w3.org/2000/svg" version="1.1">
 <title>511936_forward_reload_rotate_spin_icon</title>

 <g>
  <title>Layer 1</title>
  <path id="svg_4" d="m50.32506,15.94273c-0.06447,-0.07041 0.06566,-0.18955 0.12416,-0.10839c0.04993,0.07034 -0.06106,0.15978 -0.12416,0.10839zm0.17263,0.16024c-0.05268,-0.07752 0.09147,-0.16034 0.13707,-0.0829c0.05413,0.08097 -0.09214,0.17344 -0.13707,0.0829zm0.19653,0.19387c-0.06582,-0.04455 -0.00041,-0.14733 0.06774,-0.13816c0.09467,0.01445 0.06937,0.17221 -0.02296,0.16447c-0.01792,-0.00208 -0.03389,-0.01226 -0.04478,-0.02631zm0.16439,0.17118c-0.05504,-0.06998 0.07188,-0.1619 0.12524,-0.09526c0.05804,0.07413 -0.07149,0.17197 -0.12524,0.09526zm-0.31922,0.00384c-0.06119,-0.05792 0.02863,-0.15151 0.0962,-0.12708c0.09818,0.03143 0.02519,0.18253 -0.06244,0.1482c-0.01205,-0.00571 -0.02285,-0.01356 -0.03376,-0.02112zm-0.26027,0c-0.07192,-0.06717 0.05949,-0.1775 0.12104,-0.10724c0.06245,0.07324 -0.05474,0.17715 -0.12104,0.10724zm-0.25709,-0.00384c-0.05508,-0.06996 0.07192,-0.16193 0.12522,-0.09523c0.05787,0.07424 -0.07129,0.17191 -0.12522,0.09523zm-0.24486,0.00384c-0.07192,-0.06717 0.05949,-0.1775 0.12104,-0.10724c0.06245,0.07324 -0.05474,0.17715 -0.12104,0.10724zm-0.25707,-0.00378c-0.06311,-0.08258 0.10757,-0.17269 0.13602,-0.0691c0.02104,0.06932 -0.0929,0.12969 -0.13602,0.0691zm1.16369,0.18355c-0.06132,-0.06363 0.04775,-0.17478 0.11319,-0.11687c0.08082,0.05769 -0.02627,0.19136 -0.10046,0.12967c-0.00418,-0.00432 -0.00847,-0.00855 -0.01273,-0.0128zm-0.18611,0.15778c-0.05169,-0.07374 0.08267,-0.15467 0.13121,-0.08552c0.06331,0.07345 -0.06385,0.17353 -0.12241,0.10015l-0.0088,-0.01463zm-0.16647,0.19622c-0.05585,-0.05109 0.02087,-0.13156 0.08166,-0.11788c0.09254,0.02387 0.03422,0.17229 -0.05066,0.14412c-0.01315,-0.00452 -0.02382,-0.01456 -0.03101,-0.02625z" stroke-width="0" stroke="#0c0202" fill="#000000"/>
  <path transform="rotate(90.101 30.2827 15.5585)" stroke="#0c0202" id="svg_6" d="m15.53995,15.48917l14.74271,-28.80311l14.74271,28.80311l-7.37135,0l0,28.94171l-14.74271,0l0,-28.94171l-7.37135,0z" stroke-width="0" fill="#ffffff"/>
 </g>
</svg>